<svg id="グループ_53" data-name="グループ 53" xmlns="http://www.w3.org/2000/svg" width="28" height="28" viewBox="0 0 28 28">
  <g id="グループ_52" data-name="グループ 52">
    <circle id="楕円形_1" data-name="楕円形 1" cx="1.727" cy="1.727" r="1.727" transform="translate(19.601 4.878)"/>
    <path id="パス_513" data-name="パス 513" d="M861.258,7257.623H847.692a7.225,7.225,0,0,0-7.217,7.216v13.567a7.224,7.224,0,0,0,7.217,7.216h13.567a7.224,7.224,0,0,0,7.217-7.216v-13.567A7.225,7.225,0,0,0,861.258,7257.623Zm5.052,20.784a5.058,5.058,0,0,1-5.052,5.053H847.692a5.058,5.058,0,0,1-5.053-5.053v-13.567a5.058,5.058,0,0,1,5.053-5.052h13.567a5.058,5.058,0,0,1,5.052,5.052Z" transform="translate(-840.475 -7257.623)"/>
  </g>
  <path id="パス_514" data-name="パス 514" d="M854.644,7265.024a6.769,6.769,0,1,0,6.769,6.769A6.777,6.777,0,0,0,854.644,7265.024Zm0,11.347a4.579,4.579,0,1,1,4.579-4.578A4.584,4.584,0,0,1,854.644,7276.371Z" transform="translate(-840.644 -7257.792)"/>
</svg>
