<svg xmlns="http://www.w3.org/2000/svg" width="23" height="20" viewBox="0 0 23 20">
  <path id="パス_515" data-name="パス 515" d="M893.064,7281.7a16.027,16.027,0,0,1-9.489-2.043s4.439.372,7.349-1.2a5.955,5.955,0,0,1-5.041-4.975,9.151,9.151,0,0,0,3.349.595,5.405,5.405,0,0,1-4.314-5.569c.827,1.344,3.142,1.667,3.142,1.667a6.838,6.838,0,0,1-3.147-8.385c2.556,3.642,7.008,5.792,9.608,5.939,0,0-.25-3.9,3.253-4.523a5.336,5.336,0,0,1,5.18,1.569l3.12-.713-2.5,1.857,3-.31-2.335,1.548S905.259,7280.413,893.064,7281.7Z" transform="translate(-883.575 -7261.784)"/>
</svg>
